<?xml version="1.0" standalone="no"?><!DOCTYPE svg PUBLIC "-//W3C//DTD SVG 1.1//EN" "http://www.w3.org/Graphics/SVG/1.1/DTD/svg11.dtd"><svg class="icon" height="512" viewBox="0 0 1024 1024" version="1.1" xmlns="http://www.w3.org/2000/svg"><path d="M512 0C317.592 0 160 157.592 160 352s352 672 352 672 352-477.592 352-672S706.408 0 512 0zM224 352C224 193.184 353.184 64 512 64s288 129.184 288 288c0 110.624-160.064 377.688-288 561.904C384.064 729.688 224 462.624 224 352z m288-160c-88.376 0-160 71.624-160 160s71.624 160 160 160 160-71.624 160-160-71.624-160-160-160z m0 256c-52.936 0-96-43.064-96-96s43.064-96 96-96 96 43.064 96 96-43.064 96-96 96z" fill="#E53935" /></svg>