<svg xmlns="http://www.w3.org/2000/svg" viewBox="0 0 1024 1024" width="1024" height="1024">
	<defs>
		<filter id="flt1"> <feColorMatrix in="SourceGraphic" type="matrix" values="0 0 0 0 0.29   0 0 0 0 0.031   0 0 0 0 0.031   0 0 0 1 0" /> </filter>
	</defs>
	<style>
		tspan { white-space:pre }
		.shp0 { filter: url(#flt1);fill: #4a0808 } 
	</style>
	<path id="Layer" class="shp0" d="M864,352c0,194.41 -352,672 -352,672c0,0 -352,-477.59 -352,-672c0,-194.41 157.59,-352 352,-352c194.41,0 352,157.59 352,352zM512,913.9c127.94,-184.22 288,-451.28 288,-561.9c0,-158.82 -129.18,-288 -288,-288c-158.82,0 -288,129.18 -288,288c0,110.62 160.06,377.69 288,561.9zM672,352c0,88.38 -71.62,160 -160,160c-88.38,0 -160,-71.62 -160,-160c0,-88.38 71.62,-160 160,-160c88.38,0 160,71.62 160,160zM608,352c0,-52.94 -43.06,-96 -96,-96c-52.94,0 -96,43.06 -96,96c0,52.94 43.06,96 96,96c52.94,0 96,-43.06 96,-96z" />
</svg>