<?xml version="1.0" standalone="no"?><!DOCTYPE svg PUBLIC "-//W3C//DTD SVG 1.1//EN" "http://www.w3.org/Graphics/SVG/1.1/DTD/svg11.dtd"><svg class="icon" height="512" viewBox="0 0 1024 1024" version="1.1" xmlns="http://www.w3.org/2000/svg"><path d="M614.035456 743.01952l-17.227776 36.404224c92.55424 12.097536 148.478976 42.637312 148.478976 65.246208 0 28.771328-90.273792 70.569984-231.701504 70.569984-141.428736 0-231.650304-41.798656-231.650304-70.569984 0-26.728448 77.940736-64.587776 202.35264-69.855232l29.227008 60.908544L714.418176 417.25952l-0.2304 0c19.808256-35.221504 31.328256-75.978752 31.328256-119.561216 0-132.042752-103.860224-239.105024-231.897088-239.105024-128.052224 0-231.914496 107.062272-231.914496 239.105024 0 43.583488 11.521024 84.340736 31.223808 119.561216l-0.159744 0 153.549824 320.05632c-116.478976 7.744512-221.668352 44.296192-221.668352 107.353088 0 71.553024 135.279616 108.99456 268.934144 108.99456 133.653504 0 268.949504-37.441536 268.949504-108.99456C782.533632 791.41376 707.525632 757.086208 614.035456 743.01952zM416.187392 268.255232c0-55.48032 43.609088-100.48512 97.395712-100.48512 53.85728 0 97.446912 45.0048 97.446912 100.48512 0 55.445504-43.589632 100.412416-97.446912 100.412416C459.79648 368.6656 416.187392 323.699712 416.187392 268.255232z" fill="#FF4444" /></svg>