<svg xmlns="http://www.w3.org/2000/svg" viewBox="0 0 202 202" width="202" height="202">
	<defs>
		<filter id="flt1"> <feColorMatrix in="SourceGraphic" type="matrix" values="0 0 0 0 0.435   0 0 0 0 0.118   0 0 0 0 0.188   0 0 0 1 0" /> </filter>
		<filter id="flt2"> <feColorMatrix in="SourceGraphic" type="matrix" values="0 0 0 0 0.435   0 0 0 0 0.118   0 0 0 0 0.188   0 0 0 1 0" /> </filter>
		<filter id="flt3"> <feColorMatrix in="SourceGraphic" type="matrix" values="0 0 0 0 0.435   0 0 0 0 0.118   0 0 0 0 0.188   0 0 0 1 0" /> </filter>
		<filter id="flt4"> <feColorMatrix in="SourceGraphic" type="matrix" values="0 0 0 0 0.435   0 0 0 0 0.118   0 0 0 0 0.188   0 0 0 1 0" /> </filter>
		<filter id="flt5"> <feColorMatrix in="SourceGraphic" type="matrix" values="0 0 0 0 0.435   0 0 0 0 0.118   0 0 0 0 0.188   0 0 0 1 0" /> </filter>
		<filter id="flt6"> <feColorMatrix in="SourceGraphic" type="matrix" values="0 0 0 0 0.435   0 0 0 0 0.118   0 0 0 0 0.188   0 0 0 1 0" /> </filter>
		<filter id="flt7"> <feColorMatrix in="SourceGraphic" type="matrix" values="0 0 0 0 0.435   0 0 0 0 0.118   0 0 0 0 0.188   0 0 0 1 0" /> </filter>
		<filter id="flt8"> <feColorMatrix in="SourceGraphic" type="matrix" values="0 0 0 0 0.435   0 0 0 0 0.118   0 0 0 0 0.188   0 0 0 1 0" /> </filter>
		<filter id="flt9"> <feColorMatrix in="SourceGraphic" type="matrix" values="0 0 0 0 0.435   0 0 0 0 0.118   0 0 0 0 0.188   0 0 0 1 0" /> </filter>
	</defs>
	<style>
		tspan { white-space:pre }
		.shp0 { fill: #000000 } 
	</style>
	<g id="Layer" style="filter: url(#flt1)">
		<g id="Layer">
			<path id="Layer" class="shp0" d="M129.41,24.89c-2.02,-14.19 -14.37,-24.88 -28.72,-24.88c-9.23,0 -17.99,4.45 -23.44,11.92c-1.11,1.52 -0.78,3.66 0.74,4.77c1.52,1.11 3.66,0.78 4.77,-0.74c4.17,-5.71 10.87,-9.11 17.93,-9.11c10.97,0 20.41,8.18 21.96,19.02c0.24,1.7 1.7,2.93 3.38,2.93c0.16,0 0.32,-0.01 0.49,-0.03c1.87,-0.27 3.16,-2 2.9,-3.86z" />
		</g>
	</g>
	<g id="Layer" style="filter: url(#flt2)">
		<g id="Layer">
			<path id="Layer" class="shp0" d="M178.71,63.1l-10.24,-17.07c-0.62,-1.03 -1.73,-1.66 -2.93,-1.66h-9.81c-1.88,0 -3.41,1.53 -3.41,3.41c0,1.88 1.53,3.41 3.41,3.41h7.88l6.14,10.24h-138.13l6.14,-10.24h3.62c1.88,0 3.41,-1.53 3.41,-3.41c0,-1.88 -1.53,-3.41 -3.41,-3.41h-5.55c-1.2,0 -2.31,0.63 -2.93,1.66l-10.24,17.07c-0.63,1.06 -0.65,2.37 -0.04,3.44c0.61,1.07 1.74,1.73 2.97,1.73h150.19c1.23,0 2.36,-0.66 2.97,-1.73c0.61,-1.07 0.59,-2.38 -0.04,-3.44z" />
		</g>
	</g>
	<g id="Layer" style="filter: url(#flt3)">
		<g id="Layer">
			<path id="Layer" class="shp0" d="M161.7,31.62c-0.48,-0.77 -1.24,-1.32 -2.12,-1.52l-46.53,-10.88c-0.88,-0.21 -1.81,-0.05 -2.58,0.42c-0.77,0.48 -1.32,1.24 -1.52,2.12l-3.51,15c-0.43,1.84 0.71,3.67 2.55,4.1c1.83,0.43 3.67,-0.71 4.1,-2.55l2.73,-11.67l39.88,9.33l-6.27,26.8c-0.43,1.83 0.71,3.67 2.55,4.1c0.26,0.06 0.52,0.09 0.78,0.09c1.55,0 2.95,-1.06 3.32,-2.64l7.04,-30.12c0.21,-0.88 0.06,-1.81 -0.42,-2.58z" />
		</g>
	</g>
	<g id="Layer">
		<g id="Layer" style="filter: url(#flt4)">
			<path id="Layer" class="shp0" d="M102.5,39.69l-3.11,-26.3c-0.11,-0.9 -0.56,-1.72 -1.28,-2.28c-0.71,-0.56 -1.61,-0.82 -2.51,-0.71l-57.09,6.75c-1.87,0.22 -3.21,1.92 -2.99,3.79l5.19,43.87c0.21,1.74 1.68,3.01 3.39,3.01c0.13,0 0.27,-0.01 0.41,-0.02c1.87,-0.22 3.21,-1.92 2.99,-3.79l-4.78,-40.49l50.31,-5.95l2.71,22.92c0.22,1.87 1.91,3.2 3.79,2.99c1.87,-0.22 3.21,-1.92 2.99,-3.79z" />
		</g>
	</g>
	<g id="Layer" style="filter: url(#flt5)">
		<g id="Layer">
			<path id="Layer" class="shp0" d="M129.49,63.56l-6.78,-28.17c-0.21,-0.88 -0.77,-1.64 -1.54,-2.11c-0.77,-0.47 -1.7,-0.62 -2.58,-0.41l-54.99,13.22c-1.83,0.44 -2.96,2.28 -2.52,4.12l3.39,14.08c0.44,1.83 2.28,2.96 4.12,2.52c1.83,-0.44 2.96,-2.28 2.52,-4.12l-2.59,-10.76l48.35,-11.63l5.98,24.85c0.38,1.56 1.78,2.61 3.32,2.61c0.27,0 0.53,-0.03 0.8,-0.1c1.83,-0.44 2.96,-2.28 2.52,-4.12z" />
		</g>
	</g>
	<g id="Layer" style="filter: url(#flt6)">
		<g id="Layer">
			<path id="Layer" class="shp0" d="M186.02,197.8c0.05,0.94 -0.29,1.85 -0.93,2.53c-0.65,0.68 -1.54,1.06 -2.48,1.06h-163.84c-0.94,0 -1.83,-0.39 -2.48,-1.06c-0.64,-0.68 -0.98,-1.59 -0.93,-2.53l6.83,-133.12c0.09,-1.81 1.59,-3.24 3.41,-3.24h150.19c1.82,0 3.32,1.42 3.41,3.24zM179.02,194.56l-6.48,-126.29h-143.7l-6.48,126.29z" />
		</g>
	</g>
	<g id="Layer" style="filter: url(#flt7)">
		<g id="Layer">
			<path id="Layer" class="shp0" d="M136.53,85.33c0,5.65 -4.59,10.24 -10.24,10.24c-5.65,0 -10.24,-4.59 -10.24,-10.24c0,-5.65 4.59,-10.24 10.24,-10.24c5.65,0 10.24,4.59 10.24,10.24zM129.71,85.33c0,-1.88 -1.53,-3.41 -3.41,-3.41c-1.88,0 -3.41,1.53 -3.41,3.41c0,1.88 1.53,3.41 3.41,3.41c1.88,0 3.41,-1.53 3.41,-3.41z" />
		</g>
	</g>
	<g id="Layer" style="filter: url(#flt8)">
		<g id="Layer">
			<path id="Layer" class="shp0" d="M85.33,85.33c0,5.65 -4.59,10.24 -10.24,10.24c-5.65,0 -10.24,-4.59 -10.24,-10.24c0,-5.65 4.59,-10.24 10.24,-10.24c5.65,0 10.24,4.59 10.24,10.24zM78.51,85.33c0,-1.88 -1.53,-3.41 -3.41,-3.41c-1.88,0 -3.41,1.53 -3.41,3.41c0,1.88 1.53,3.41 3.41,3.41c1.88,0 3.41,-1.53 3.41,-3.41z" />
		</g>
	</g>
	<g id="Layer" style="filter: url(#flt9)">
		<g id="Layer">
			<path id="Layer" class="shp0" d="M126.29,85.33h-0.26c-1.88,0 -3.41,1.53 -3.41,3.41c0,0.47 0.09,0.91 0.26,1.32v17.46c0,12.23 -9.95,22.19 -22.19,22.19c-12.23,0 -22.19,-9.95 -22.19,-22.19v-18.77c0,-1.88 -1.53,-3.41 -3.41,-3.41c-1.88,0 -3.41,1.53 -3.41,3.41v18.77c0,16 13.02,29.01 29.01,29.01c16,0 29.01,-13.01 29.01,-29.01v-18.77c0,-1.88 -1.53,-3.41 -3.41,-3.41z" />
		</g>
	</g>
	<g id="Layer">
	</g>
	<g id="Layer">
	</g>
	<g id="Layer">
	</g>
	<g id="Layer">
	</g>
	<g id="Layer">
	</g>
	<g id="Layer">
	</g>
	<g id="Layer">
	</g>
	<g id="Layer">
	</g>
	<g id="Layer">
	</g>
	<g id="Layer">
	</g>
	<g id="Layer">
	</g>
	<g id="Layer">
	</g>
	<g id="Layer">
	</g>
	<g id="Layer">
	</g>
	<g id="Layer">
	</g>
</svg>