<svg xmlns="http://www.w3.org/2000/svg" viewBox="0 0 60 60" width="60" height="60">
	<defs>
		<filter id="flt1"> <feColorMatrix in="SourceGraphic" type="matrix" values="0 0 0 0 0.435   0 0 0 0 0.118   0 0 0 0 0.188   0 0 0 1 0" /> </filter>
	</defs>
	<style>
		tspan { white-space:pre }
		.shp0 { fill: #000000 } 
	</style>
	<g id="Layer" style="filter: url(#flt1)">
		<path id="Layer" class="shp0" d="M14,26.18h14v10h-14zM26,34.18v-3h-10v3zM16,28.18v1h10v-1z" />
		<path id="Layer" class="shp0" d="M28,40.18v12h-14v-12zM16,42.18v3h4v-3zM16,50.18h4v-3h-4zM26,50.18v-3h-4v3zM26,42.18h-4v3h4z" />
		<path id="Layer" class="shp0" d="M32,26.18h14v10h-14zM44,34.18v-1h-10v1zM34,28.18v3h10v-3z" />
		<path id="Layer" class="shp0" d="M60,49.18v9c0,0.55 -0.45,1 -1,1c-0.55,0 -1,-0.45 -1,-1v-1h-1v1c0,0.55 -0.45,1 -1,1c-0.55,0 -1,-0.45 -1,-1v-1h-1v2h-48v-2h-1v1c0,0.55 -0.45,1 -1,1c-0.55,0 -1,-0.45 -1,-1v-1h-1v1c0,0.55 -0.45,1 -1,1c-0.55,0 -1,-0.45 -1,-1v-9c0,-0.55 0.45,-1 1,-1c0.55,0 1,0.45 1,1v1h1v-1c0,-0.55 0.45,-1 1,-1c0.55,0 1,0.45 1,1v1h1v-20.2c-1.53,0.69 -3.36,0.36 -4.55,-0.92c-0.76,-0.82 -1.14,-1.93 -1.06,-3.04c0.09,-1.11 0.64,-2.14 1.52,-2.83l25.43,-19.9l2.66,-2.47l2.72,2.53l25.37,19.84c0.88,0.69 1.43,1.72 1.52,2.83c0.09,1.11 -0.3,2.22 -1.06,3.04c-0.79,0.85 -1.85,1.28 -2.93,1.28c-0.55,0 -1.1,-0.13 -1.63,-0.36v20.2h1v-1c0,-0.55 0.45,-1 1,-1c0.55,0 1,0.45 1,1v1h1v-1c0,-0.55 0.45,-1 1,-1c0.55,0 1,0.45 1,1zM5.6,27.92l0.79,-0.61l0,0l23.61,-18.2l24,18.5l0.4,0.31c0.83,0.64 1.98,0.54 2.69,-0.22c0.38,-0.41 0.57,-0.95 0.53,-1.52c-0.05,-0.56 -0.32,-1.07 -0.76,-1.42l-25.43,-19.9l-1.42,-1.32l-1.36,1.26l-25.49,19.95c-0.45,0.35 -0.72,0.85 -0.76,1.42c-0.04,0.56 0.14,1.1 0.53,1.52c0.71,0.76 1.86,0.86 2.69,0.22zM3,55.18v-3h-1v3zM6,55.18v-3h-1v3zM44,57.18v-15h-10v15zM52,28.59l-22,-16.96l-22,16.96v28.59h24v-17h14v17h6zM55,55.18v-3h-1v3zM58,55.18v-3h-1v3z" />
	</g>
	<g id="Layer">
	</g>
	<g id="Layer">
	</g>
	<g id="Layer">
	</g>
	<g id="Layer">
	</g>
	<g id="Layer">
	</g>
	<g id="Layer">
	</g>
	<g id="Layer">
	</g>
	<g id="Layer">
	</g>
	<g id="Layer">
	</g>
	<g id="Layer">
	</g>
	<g id="Layer">
	</g>
	<g id="Layer">
	</g>
	<g id="Layer">
	</g>
	<g id="Layer">
	</g>
	<g id="Layer">
	</g>
</svg>