<svg xmlns="http://www.w3.org/2000/svg" viewBox="0 0 16 13" width="16" height="13">
	<defs>
		<filter id="flt1"> <feColorMatrix in="SourceGraphic" type="matrix" values="0 0 0 0 0.435   0 0 0 0 0.118   0 0 0 0 0.188   0 0 0 1 0" /> </filter>
	</defs>
	<style>
		tspan { white-space:pre }
		.shp0 { fill: #000000 } 
	</style>
	<g id="Layer" style="filter: url(#flt1)">
		<g id="Layer">
			<path id="Layer" class="shp0" d="M14.26,0.12h-0.07c-0.47,0 -0.84,0.38 -0.84,0.84c0,0.12 0.02,0.23 0.07,0.33v4.32c0,3.03 -2.46,5.49 -5.49,5.49c-3.03,0 -5.49,-2.46 -5.49,-5.49v-4.65c0,-0.47 -0.38,-0.84 -0.84,-0.84c-0.47,0 -0.84,0.38 -0.84,0.84v4.65c0,3.96 3.22,7.18 7.18,7.18c3.96,0 7.18,-3.22 7.18,-7.18v-4.65c0,-0.47 -0.38,-0.85 -0.84,-0.85z" />
		</g>
	</g>
</svg>