<svg xmlns="http://www.w3.org/2000/svg" viewBox="0 0 512 512" width="512" height="512">
	<style>
		tspan { white-space:pre }
		.shp0 { fill: #ffffff } 
	</style>
	<g id="WhatsApp">
		<g id="whatsApp-2">
			<path id="Layer" class="shp0" d="M112.64,400.05l20.25,-74c-12.52,-21.7 -19.09,-46.32 -19.06,-71.37c0,-78.71 64.07,-142.75 142.76,-142.75c37.88,0.01 74.21,15.07 100.99,41.86c26.78,26.8 41.81,63.14 41.78,101.03c0,78.71 -64.08,142.76 -142.76,142.76h-0.06c-23.84,0 -47.29,-5.98 -68.22,-17.38zM191.82,354.35l4.34,2.57c18.28,10.83 39.14,16.54 60.39,16.54h0.05c65.4,0 118.63,-53.23 118.66,-118.66c0,-50.42 -31.85,-95.33 -79.44,-112c-47.58,-16.66 -100.5,-1.44 -131.96,37.96c-31.45,39.4 -34.58,94.38 -7.79,137.09l2.82,4.49l-12,43.79z" />
			<path id="Layer" class="shp0" d="M328.52,288.76c-0.89,-1.49 -3.27,-2.38 -6.84,-4.17c-3.57,-1.79 -21.1,-10.41 -24.37,-11.59c-3.27,-1.18 -5.65,-1.79 -8,1.79c-2.35,3.58 -9.21,11.61 -11.29,14c-2.08,2.39 -4.16,2.68 -7.73,0.89c-3.57,-1.79 -15.06,-5.55 -28.68,-17.71c-10.61,-9.46 -17.77,-21.14 -19.84,-24.71c-2.07,-3.57 -0.22,-5.5 1.56,-7.28c1.61,-1.6 3.57,-4.17 5.35,-6.25c1.47,-1.82 2.67,-3.84 3.57,-6c0.96,-2 0.85,-4.35 -0.3,-6.25c-0.89,-1.79 -8,-19.34 -11,-26.48c-2.89,-7 -5.84,-6 -8,-6.13c-2.16,-0.13 -4.46,-0.12 -6.84,-0.12c-3.65,0.1 -7.1,1.71 -9.51,4.46c-3.27,3.57 -12.48,12.2 -12.48,29.76c0,17.56 12.78,34.52 14.57,36.9c1.79,2.38 25.15,38.41 60.94,53.86c6.64,2.86 13.43,5.37 20.34,7.52c7.28,2.21 14.97,2.69 22.46,1.41c6.86,-1 21.11,-8.63 24.08,-17c2.97,-8.37 2.9,-15.41 2.01,-16.9z" />
		</g>
	</g>
</svg>